# xmcd
#
# Track frame offsets:
#	150
#	31657
#	54457
#	79882
#	115382
#	140777
#	162180
#	195080
#	225145
#	252035
#
# Disc length: 3598 seconds
#
# Revision: 1
# Processed by: cddbd v1.5.1PL0 Copyright (c) Steve Scherf et al.
# Submitted via: CDex 1.50Beta5
#
DISCID=710e0c0a
DTITLE=ケニー・ドリューJr. - シシリアーノ
DYEAR=2001
DGENRE=Jazz
TTITLE0=ホワット・アー・ユー・ドゥイング・ザ・レスト・オブ・ユア・ライフ
TTITLE1=シシリアーノ
TTITLE2=ケニーズ・チューン
TTITLE3=プレリュード・トゥ・ア・キス
TTITLE4=イフ・アイ・シュッド・ファインド・ユー
TTITLE5=クリスティーヌ
TTITLE6=ストラング・メドウラーク
TTITLE7=ルニー・チューン
TTITLE8=アウト・オブ・ザ・パスト
TTITLE9=ポルカ・ドッツ・アンド・ムーンビームス
EXTD=
EXTT0=
EXTT1=
EXTT2=
EXTT3=
EXTT4=
EXTT5=
EXTT6=
EXTT7=
EXTT8=
EXTT9=
PLAYORDER=
